<?xml version="1.0" encoding="UTF-8"?>
<svg id="Capa_1" data-name="Capa 1" xmlns="http://www.w3.org/2000/svg" version="1.1" viewBox="0 0 835 604">
  <defs>
    <style>
      .cls-1 {
        fill: #fff;
        stroke-width: 0px;
      }
    </style>
  </defs>
  <path class="cls-1" d="M559.47,37.94c38.47-.86,76.94-2.05,115.42-2.48,31.87-.36,63.61,1.27,93.69,13.5,25.25,10.26,42.48,27.63,47.41,55.32,2.63,14.77,2.31,29.49-1.89,44-6.77,23.37-24.1,35.93-45.58,43.94-18.81,7.02-38.45,10.47-58.39,12.14-15.58,1.31-31.21,2.13-46.81,3.19-1.49.1-2.99.28-4.46.54-3.4.59-4.69,2.78-4.52,6.08.18,3.37,2.2,4.52,5.26,4.72,14.78.96,29.58,1.71,44.33,3.03,24.54,2.2,48.78,5.81,72.09,14.5,31.23,11.64,46.63,34.36,48.38,67.06.88,16.38.16,32.65-5.11,48.36-6.99,20.82-20.9,35.65-40.31,45.49-18.04,9.15-37.53,13.33-57.35,15.99-37.8,5.09-75.78,3.27-113.74,2.81-45.96-.56-91.94-.61-137.9-.57-17.82.01-35.63.94-53.45,1.31-6.62.14-10.07-1.78-9.19-4.93,1.43-5.06,5.91-3.78,9.61-3.79,1.32,0,2.64.31,3.97.45,15.01,1.59,21.35-3.35,23.03-18.5.95-8.6,1.68-17.25,1.9-25.89,1.09-42.97,2.6-85.94,2.77-128.91.17-42.48-.8-84.96-1.84-127.43-.38-15.6-2.37-31.16-3.68-46.74-.12-1.47-.61-2.93-1.08-4.34-3.06-9.36-8.58-12.74-18.25-11.23-2.95.46-5.9.98-8.86,1.38-3.64.49-7.22-.11-7.58-4.37-.36-4.22,2.94-5.58,6.69-5.56,13.16.08,26.32.29,39.49.3,35.32.04,70.64.02,105.95.02,0,.2,0,.4,0,.6ZM604.61,303.98c.32,0,.65,0,.97,0,.69,23.13,1.2,46.26,2.19,69.38.34,7.93,1.35,15.93,3.04,23.68,1.83,8.41,6.87,11.8,15.57,11.79,14.62-.02,25.59-5.99,31.87-19.69,6.52-14.22,8.36-29.51,8.52-44.72.25-23.09-.54-46.23-1.91-69.29-.83-13.93-4.13-27.62-11.15-40.02-7.7-13.6-18.83-18.84-34.3-16.39-11.3,1.79-14.77,5.84-14.78,17.33-.01,22.64,0,45.28,0,67.93ZM604.84,157.79c-.07,0-.15,0-.22.01,0,11.49-.08,22.98.03,34.46.07,8.36,2.71,13.09,9.22,14.84,19.09,5.12,34.57,1.22,41.63-19.33.59-1.72,1.19-3.45,1.64-5.22,5.69-22.2,5.76-44.86,4.36-67.45-.87-14.03-3.08-28.05-5.66-41.89-1.65-8.84-5.58-17.11-12.57-23.35-9.11-8.14-22.5-6.13-28.72,4.29-5.2,8.7-6.43,18.48-6.87,28.29-1.13,25.11-1.91,50.24-2.83,75.36Z"/>
  <path class="cls-1" d="M137.72,415.4c-26.48,0-52.97-.14-79.45.06-12.49.1-24.97.74-37.45,1.35-10.13.5-12.31-2.29-7.8-11.71,7.78-16.23,14.8-32.68,19.36-50.16,6.18-23.7,9.97-47.79,12.77-72.09,7.04-61.07,6.63-122.37,5.66-183.67-.22-13.75-1.78-27.56-3.91-41.16-1.73-11.06-6.14-13.63-17.51-12.9-3.81.24-7.6.91-11.41,1.21-3.58.28-7.73.5-7.73-4.53,0-4.45,3.8-4.88,7.32-4.78,14.32.4,28.64,1.13,42.96,1.22,32.31.21,64.62.26,96.93.07,15.66-.09,31.3-1.02,46.96-1.25,10.68-.15,13.63,3.31,14.2,14.04.87,16.5,6.14,31.91,12.52,46.97,15.08,35.63,35.17,68.44,58.24,99.28,19.53,26.12,40.65,51.06,61.1,76.5,1.56,1.94,3.13,4.15,5.21,5.33,2.23,1.27,5.61,2.66,7.48,1.8,1.93-.89,3.88-4.53,3.69-6.78-1.08-12.72-1.86-25.59-4.5-38.04-6.27-29.65-21.57-55.28-37.84-80.36-10.15-15.64-20.54-31.16-30.04-47.19-10.08-17-17.38-35.17-18.85-55.22-.11-1.49-.31-2.98-.37-4.48-.39-9.86,2.53-11.91,12.44-11.68,28.47.66,56.95.83,85.42.97,7.65.04,15.3-.8,22.95-1.09,5.04-.19,7.99,2.6,7.35,7.73-.59,4.73-1.81,9.49-3.52,13.95-12.08,31.63-19.01,64.43-21.33,98.08-2.03,29.38-3.75,58.86-3.67,88.29.07,26.6,2.76,53.19,4.31,79.78,1.46,25.26,2.95,50.53,4.38,75.79.12,2.15.09,4.36-.24,6.48-.95,6.16-3.62,9.21-9.84,9.19-13.31-.05-26.61-1.11-39.92-1.19-16.97-.1-33.94.33-50.91.6-11.15.18-22.3.55-33.45.68-8.11.09-14.03-3.98-17.87-10.82-3.42-6.08-6.36-12.44-9.38-18.74-36.19-75.61-78.64-147.45-129.48-214.19-6.85-8.99-14.61-17.29-22.02-25.86-2.13-2.46-5.08-5.07-8.09-2.92-1.88,1.34-2.98,4.96-2.99,7.56-.23,44.38,12.85,85.36,33.8,123.8,14.64,26.87,31.26,52.66,46.86,79.02,8.56,14.46,17.14,28.97,20.87,45.64.76,3.4,1.22,6.88,1.55,10.35.38,4.08-1.68,6.36-5.78,6.43-6.33.1-12.66.03-18.98.03,0-.47,0-.95,0-1.42Z"/>
  <path class="cls-1" d="M452.17,507.32c5.52.52,11.04.96,16.54,1.6,3.63.42,7.28.91,10.82,1.78,17.57,4.33,24.39,16.33,19.56,33.92-2.32,8.46-7.8,14.18-15.93,16.46-7.62,2.14-15.6,3.71-23.47,4.02-12.12.47-24.28-.57-36.43-.56-12.31,0-24.62.53-36.94.75-1.85.03-3.7-.4-5.55-.61-.06-.48-.11-.96-.17-1.44,1.05-.39,2.14-1.21,3.14-1.1,5.94.65,7.04-3.15,7.24-7.71.31-6.99.72-13.98.68-20.97-.13-22.31-.38-44.62-.75-66.93-.08-4.6-1.73-8.24-7.58-7.26-.81.14-1.75-.46-2.62-.72-.08-.47-.16-.94-.24-1.41,1.64-.4,3.28-1.11,4.92-1.14,7.33-.13,14.66.03,21.99-.08,18.47-.27,36.95-.9,55.42-.81,6.22.03,12.69,1.04,18.61,2.96,16.65,5.41,18.09,17.19,15.81,28.98-1.34,6.95-6.25,11.67-12.94,13.25-9,2.13-18.26,3.19-27.41,4.69-1.54.25-3.1.39-4.65.58-.01.59-.03,1.17-.04,1.76ZM437.47,528.58h-.22c.43,9.16.79,18.31,1.31,27.44.3,5.28,2.68,7.04,7.5,5.75,4.25-1.14,6.19-4.44,6.91-8.38,2.2-11.92,2.3-23.87-.54-35.7-.6-2.48-1.8-5.52-3.73-6.81-2.34-1.55-5.8-2.15-8.63-1.84-1.07.12-2.29,3.87-2.48,6.05-.38,4.47-.12,8.99-.12,13.49ZM437.19,487.2c.09,0,.19.02.28.02,0,3.83-.03,7.66,0,11.49.06,5.09,2.99,7.7,7.6,5.77,2.52-1.05,5.3-3.91,6-6.48,2.96-10.95,2.6-22.09-.38-33.03-.94-3.43-2.83-6.93-7.14-6.36-4.12.54-4.66,4.39-4.96,7.69-.63,6.95-.95,13.93-1.4,20.89Z"/>
  <path class="cls-1" d="M810.69,547.9c-.19-4.05-.37-8.1-.56-12.16.48-.16.96-.33,1.44-.49.66,1.38,1.84,2.73,1.9,4.14.21,4.82.44,9.7-.08,14.47-.87,8.03-6.42,12.55-16.75,13.25-5.41.36-11.03.01-16.34-1.08-9.83-2.03-15.82-10.54-16.19-22.49-.23-7.49.41-15,.15-22.49-.08-2.32-1.21-5.36-2.93-6.71-3.37-2.64-6.75-.81-6.76,3.48-.04,12.66.05,25.33.44,37.98.17,5.75,1.49,6.55,7.18,6.17,1.16-.08,2.37-.42,3.47-.19.73.15,1.49,1.02,1.83,1.75.12.27-.84,1.36-1.48,1.57-.91.31-1.97.21-2.97.21-17.83,0-35.67.02-53.5-.02-1.51,0-3.02-.4-4.8-1.15,7.71-3.17,6.08-9.66,6.1-15.3.1-28.17.05-56.33.04-84.5,0-1.83.02-3.68-.19-5.49-.77-6.78-1.15-6.98-7.91-6.69-1.16.05-2.37-1.04-3.56-1.6,1-.6,1.96-1.65,3.01-1.75,14.41-1.41,28.82-2.77,43.25-3.98,9.35-.78,10.88.79,10.56,10.19-.48,13.99-1.01,27.97-1.5,41.95-.07,2-.23,4.04.09,5.99.21,1.3,1.19,2.48,1.83,3.72,1.27-.66,2.67-1.15,3.76-2.04.86-.7,1.66-1.8,1.94-2.86,1.7-6.54,3.7-13.05,4.7-19.71.68-4.55-.63-8.84-6.93-8.3-.5.04-1.05-.6-2.65-1.58,2.03-.65,3.08-1.27,4.15-1.28,4.16-.07,8.33.09,12.5.08,11.14-.02,22.28-.1,33.42-.13,5.83-.02,7.03,1.55,5.81,7.27-1.5,7.05-5.81,12.14-12.03,15.11-6.72,3.21-13.85,5.56-20.86,8.14-6.48,2.38-13.02,4.57-19.54,6.84.15.7.3,1.4.45,2.1,2.88-.41,5.8-.63,8.63-1.28,7.71-1.79,15.12-5.1,23.43-3.33,9.45,2.01,14.91,7.95,15.14,17.65.15,6.49-.1,13-.09,19.5,0,1.7.29,3.4.45,5.11.66-.03,1.31-.05,1.97-.08Z"/>
  <path class="cls-1" d="M16.62,458.09c1.19-1,1.7-1.73,2.36-1.9,1.11-.27,2.31-.24,3.47-.24,15.96-.01,31.93.1,47.89-.09,4.53-.05,5.9,1.74,7.29,6.04,2.99,9.25,6.19,18.76,11.29,26.92,7.47,11.95,16.66,22.82,25.18,34.1.84,1.12,2.11,1.91,4.51,4.03,0-3.97.26-6.46-.04-8.88-1.3-10.37-6.4-19.15-11.85-27.78-3.02-4.79-6.08-9.55-8.97-14.41-1.27-2.13-2.33-4.43-3.19-6.76-4.17-11.42-2.83-13.2,9.21-13.02,6.99.1,13.99-.07,20.99-.09,4.99-.02,6.11,1.3,4.41,6.06-8.87,24.81-8.03,50.37-6.16,76.04.5,6.81,1.09,13.61,1.36,20.43.22,5.71-1,6.77-6.58,6.76-9.46,0-18.94-.28-28.39.11-5.72.24-8.9-2.08-11.2-7.09-10.26-22.31-22.79-43.3-37.68-62.84-2.24-2.94-4.82-5.62-7.84-8.11-1.91,6.95-.65,13.54,1.7,19.54,3.74,9.55,8.35,18.79,13.01,27.94,3.47,6.81,7.7,13.22,11.41,19.92,1.03,1.85,1.52,4.04,2,6.14.68,2.94-.62,4.4-3.68,4.39-12.16-.02-24.32-.02-36.48,0-3.19,0-3.74-1.58-2.62-4.19,12.98-30.31,10.3-62.31,10.01-94.03-.06-6.98-1-7.42-7.79-7.89-1-.07-1.97-.6-3.62-1.12Z"/>
  <path class="cls-1" d="M704.11,522.19c-.62,4.75-.83,10.29-2.11,15.56-3.95,16.22-15.2,24.9-30.96,28.13-12.04,2.47-24.18,2.27-36.12-.81-16.71-4.31-27.35-16.36-28.41-34.41-.61-10.31.15-21.1,2.58-31.11,4.78-19.72,19.51-30.85,39.88-31.55,6.93-.24,14.08.01,20.81,1.49,18.07,3.97,30.09,17.78,32.74,36.55.72,5.09,1.03,10.24,1.6,16.14ZM648.72,516c.56,9.58,1.03,20.87,1.99,32.13.26,2.99.29,7.74,4.68,7.36,1.71-.15,4.31-4.65,4.34-7.19.28-22.92.2-45.85-.14-68.78-.05-3.05.07-8.28-4.53-7.9-1.73.14-4.01,5.6-4.31,8.79-1.05,11.25-1.36,22.56-2.04,35.59Z"/>
  <path class="cls-1" d="M504.21,521.39c.94-6.73,1.34-13.58,2.92-20.16,4.85-20.22,18.86-32,39.69-33.17,7.07-.4,14.41-.09,21.32,1.35,17.62,3.68,27.87,15.4,32.19,32.45,2.69,10.59,3.11,21.39,1.2,32.2-2.75,15.55-11.52,26.02-26.75,30.45-14.37,4.18-28.93,4.22-43.29-.18-15.94-4.88-25.38-17.18-26.43-33.86-.19-2.99-.03-5.99-.03-8.99l-.83-.09ZM560.74,516.1c-.82-12.67-1.47-24.59-2.45-36.49-.27-3.23.1-8.4-4.29-8.28-4.44.12-4.25,5.33-4.51,8.77-.83,11.09-1.83,22.21-1.79,33.31.04,11.93.97,23.88,2,35.78.2,2.33,2.66,4.45,4.08,6.67,1.49-2.08,4.06-4.04,4.3-6.26,1.23-11.36,1.86-22.78,2.66-33.52Z"/>
  <path class="cls-1" d="M228.4,518.28c.22,1.39.74,2.82.6,4.18-.59,5.62-1,11.3-2.18,16.81-3.26,15.26-12.62,24.42-28.12,27.33-11.1,2.08-22.13,2.27-33.17-.2-19-4.24-31.04-17.47-32.3-36.9-.59-9.05-.4-18.44,1.38-27.29,4.2-20.86,19.49-33.25,41.59-34.13,8.72-.35,17.7.26,26.24,2,16.91,3.44,26.23,16.66,25.18,33.92-.46,7.52-3.81,12.51-11.09,14.17-6.26,1.43-12.81,1.6-19.24,2.26-4.29.45-8.66.47-12.87,1.29-3.38.65-6.2,2.51-6.2,6.71,0,3.87,2.32,5.75,5.63,6.64,11.69,3.13,23.08,2.28,33.96-3.11,4.38-2.17,7.2-5.81,8.13-10.76.19-1.02.66-1.99,1-2.99l1.46.06ZM176.7,499.27c.14.01.28.02.42.03,0,4.65-.13,9.31.07,13.96.07,1.49,1.01,2.94,1.56,4.41,1.52-.84,3.14-1.55,4.52-2.58.74-.55,1.23-1.59,1.55-2.51,4.3-12.33,4.99-24.97,2.87-37.76-.24-1.43-2.22-3.65-3.31-3.6-1.56.07-3.43,1.61-4.44,3.04-.99,1.39-1.32,3.4-1.5,5.19-.68,6.6-1.18,13.22-1.75,19.83Z"/>
  <path class="cls-1" d="M271.54,568.58c-9.78-1.71-19.21-2.75-28.3-5.13-8.01-2.09-11.36-7.4-11.27-14.48.07-5.48,2.73-9.16,7.74-11.05,6.59-2.49,13.35-2.59,20.07-.56,9.59,2.91,13.1,10.44,9.79,19.96-.69,2-.98,5.96-.18,6.34,3.39,1.61,5.94-.58,7.73-3.51,3.04-4.98,2.6-12.18-1.99-16.64-3.37-3.27-7.67-5.7-11.85-7.97-6.54-3.56-13.65-6.15-19.95-10.06-16.11-10.01-16.28-39.81,3.03-49.46,6.97-3.48,14.99-6.07,22.7-6.59,10.66-.72,21.51.65,32.23,1.66,3.14.3,6.31,2.08,9.12,3.77,4.69,2.81,6.83,7.24,6.05,12.73-.77,5.42-4.28,8.9-9.41,9.69-5.34.81-11.01,1.32-16.26.4-10.8-1.89-14.29-8.24-11.79-18.93.53-2.26,3.24-5.09-.48-6.9-2.59-1.26-7.64,1.84-8.67,5.24-1.63,5.37-.92,10.54,3.71,14.02,4.48,3.36,9.46,6.12,14.39,8.83,5.97,3.27,12.37,5.78,18.14,9.35,11.54,7.14,15.03,18.24,13.36,31.08-1.56,12.01-9.13,19.66-20.28,22.93-8.98,2.63-18.45,3.62-27.62,5.32Z"/>
  <path class="cls-1" d="M317.61,472.37c19.55-2.56,36.81-8.76,50.91-22.39.38.28.75.56,1.13.85,0,4.54,0,9.09,0,13.63.01,6.11.34,6.38,6.58,6.48,2.01.03,4.02.36,6.02.56.03.68.06,1.35.09,2.03-2.17.21-4.37.75-6.51.57-4.71-.39-6.67,1.41-6.54,6.25.47,17.46.72,34.94,1.07,52.4.02.99-.04,2.13.4,2.94.57,1.06,1.62,1.86,2.46,2.77.89-1.05,2.39-2.03,2.52-3.17.22-1.91-.39-3.92-.74-5.88-.35-1.96-1.14-3.9-1.13-5.85,0-1.19,1.15-2.38,1.78-3.57.94.94,2.57,1.79,2.72,2.84,1.58,11.35,1.2,22.62-3.28,33.31-3.07,7.33-9.39,10.67-17.04,11.08-4.6.24-9.28-.27-13.88-.78-9.3-1.04-14.69-6.62-16.46-15.54-.93-4.7-1.37-9.57-1.4-14.36-.11-16.65.15-33.3.07-49.95-.03-6,1.9-13.45-8.78-14.2Z"/>
</svg>